<svg xmlns="http://www.w3.org/2000/svg" width="1.2em" height="1em" viewBox="0 0 256 214"><path d="M98.329 4.641c2.143 0 3.846 1.213 4.763 3.183c.644 1.38.925 3.134.939 5.337v157.715c-.013 2.92-.318 5.202-.987 6.92c-.927 2.386-2.696 3.926-5.11 3.966h-.095l-18.186-.023c-2.458 0-4.227-1.574-5.135-4.001c-.639-1.706-.93-3.974-.942-6.885V39.145l-4.897 1.24l-1.954.49l-.571.14l-.29.067l-.136.028l-.05.008l-.026.003h-.027l-.003-.002l-.001-.003v-.003l.004-.004l.031-.03c.012-.012.017-.023-.002-.03l-.011-.004l-.057.003c-2.063.077-3.78-1.026-4.719-2.917c-.671-1.35-.959-3.076-.972-5.26V21.284c0-2.046.33-3.764 1.076-5.165c.85-1.598 2.213-2.695 3.927-3.14l.103-.026l.119-.028l31.446-8.093a7.014 7.014 0 0 1 1.478-.187l.147-.004h.138ZM150.842 0c2.253 0 4.048 1.263 5.034 3.344c.712 1.505 1.03 3.442 1.043 5.878v46.473l.001.11h13.526c2.124 0 3.87 1.096 4.897 2.965l.048.09l.047.09c.743 1.453 1.07 3.307 1.085 5.623v6.593c0 2.356-.328 4.24-1.098 5.712c-1.003 1.917-2.75 3.05-4.88 3.084h-13.647v61.196l.004.476l.005.47l.008.463l.005.23l.014.566l.017.555l.021.546l.025.535l.01.212l.023.418l.026.41l.027.406l.03.398l.015.196l.033.389l.017.191l.018.19l.037.376l.04.368l.02.182l.043.359c.091.746.198 1.449.318 2.108l.04.218l.03.154l.058.288l.059.28l.03.139l.061.271l.063.264l.032.13l.065.254c.084.323.172.629.262.917l.078.244c.382 1.156.811 2.016 1.265 2.574c.842 1.037 1.583 1.663 2.153 1.912l.173.071c.674.269 1.607.422 2.807.432h8.577c2.019 0 3.765.804 4.91 2.383c.952 1.311 1.37 2.976 1.388 4.97l.001.14v7.139c0 2.207-.428 4.027-1.427 5.443c-1.16 1.645-2.936 2.506-5 2.535h-.11l-12.116.023c-3.359 0-6.29-.236-8.84-.717c-2.728-.515-5.501-1.647-8.35-3.381c-2.967-1.806-5.4-4.283-7.292-7.404c-1.84-3.032-3.277-7.123-4.36-12.284c-1.056-5.025-1.595-10.88-1.614-17.546V79.962h-5.592c-2.107 0-3.85-1.068-4.883-2.907l-.048-.088l-.048-.09c-.752-1.437-1.083-3.268-1.099-5.547v-6.595c0-2.391.326-4.299 1.086-5.785c.996-1.948 2.745-3.108 4.891-3.143l.101-.001h5.591v-.182l2.148-46.374l.012-.208c.152-2.397.54-4.284 1.25-5.733c.984-2.01 2.671-3.27 4.823-3.309h12.013Zm100.03 55.762c2 0 3.553 1.183 4.356 3.01c.544 1.239.772 2.79.772 4.725c0 .071 0 .143-.002.217l-.002.111l-.008.23l-.005.117l-.014.241l-.008.124l-.02.254c-.016.207-.037.422-.06.646l-.02.17l-.033.29l-.038.3l-.041.311l-.033.236l-21.207 110.414l-.05.271l-.105.576l-.107.57l-.16.844l-.108.556l-.163.824l-.109.542l-.11.537l-.11.532l-.11.526l-.111.52l-.168.771l-.112.507l-.113.502l-.114.496l-.114.49l-.114.486l-.115.48l-.116.474l-.116.468l-.117.464l-.117.457l-.118.453l-.118.447l-.119.441l-.119.436l-.12.43l-.12.426l-.12.42l-.122.413l-.122.409l-.123.403l-.123.398l-.123.392l-.124.387l-.125.38l-.125.377l-.063.185l-.126.368l-.063.182l-.063.18l-.16.445l-.159.437l-.064.172l-.129.34l-.129.335l-.173.438l-.152.373l-.157.38c-.278.66-.56 1.294-.847 1.904l-.124.26l-.166.34l-.167.336c-1.843 3.664-3.908 6.33-6.281 8.004c-2.957 2.104-6.73 3.18-11.291 3.309l-.205.005h-1.26c-7.15 0-12.374-1.962-15.383-6.11l-.09-.126l-.078-.111l-.04-.05c-.857-1.088-1.281-2.586-1.448-4.68l-.011-.141l-.018-.269l-.009-.137l-.007-.138l-.013-.281l-.006-.143l-.005-.145l-.01-.37l-.007-.38l-.002-.154l-.002-.315v-.346l.001-.191l.004-.378l.003-.186l.004-.184l.009-.364l.005-.179l.007-.177l.014-.35l.017-.342l.02-.336l.023-.33l.012-.16l.027-.32l.03-.311c.14-1.389.366-2.572.687-3.565c.833-2.576 2.49-4.305 4.992-4.346h.09l.098.001l.081.004l.084.006l.087.009l.118.015l.128.021l.172.033l.16.034l.142.033l.279.07l.375.098l.505.14l.534.152l.707.206l1.694.497l.48.146l.431.128l.41.119l.388.11l.366.1l.26.07l.246.065l.308.078l.283.069l.196.046l.181.04l.166.036l.199.04l.13.023l.115.018l.068.01l.06.006l.053.005l.024.001l.042.002a.177.177 0 0 0 .08-.02c.088-.039.206-.119.354-.257c.462-.433.98-1.221 1.498-2.368c.659-1.457 1.141-3.34 1.433-5.638l.024-.198l.04-.344l.037-.35l.018-.178l.017-.179l.031-.362a49.99 49.99 0 0 0 .158-3.865l.001-.298l-.002-.095l-.004-.074l-.01-.126l-.018-.196l-.027-.229l-.034-.26l-.02-.143l-.045-.308l-.053-.34l-.076-.47l-.088-.517l-.1-.565l-.11-.613l-.15-.798l-.164-.864l-.213-1.092l-.27-1.357l-.26-1.281l-.324-1.57l-.343-1.635l-23.364-97.108l-.04-.291l-.038-.277l-.034-.267l-.032-.257l-.035-.309l-.03-.295l-.011-.114l-.02-.222l-.016-.215l-.007-.104l-.013-.203l-.009-.195l-.003-.095l-.005-.186l-.001-.09v-.25c.012-1.724.215-3.114.686-4.242c.733-1.758 2.187-2.94 4.107-2.977l.091-.001h14.41c1.93 0 3.64.705 4.961 2.066c1.216 1.252 1.941 3.142 2.413 5.776l.027.15l.044.262l12.677 67.097l9.9-66.63l.016-.127c.36-2.668.968-4.651 1.978-6.02l.061-.081l.061-.079c1.223-1.548 2.936-2.405 4.886-2.436h10.097ZM38.456 4.84c2.143 0 3.846 1.213 4.764 3.183c.643 1.38.925 3.134.938 5.337v157.528c0 3.01-.304 5.352-.986 7.108c-.927 2.385-2.697 3.925-5.108 3.964H19.76c-2.459 0-4.228-1.574-5.136-4.001c-.639-1.706-.93-3.974-.942-6.885V39.366l-3.513.888l-2.771.693l-.657.158l-.29.067l-.22.046l-.125.02l-.103.01l-.122.01c-2.147.155-3.94-.958-4.908-2.906c-.67-1.35-.958-3.076-.972-5.26V21.505c0-2.046.33-3.764 1.076-5.165c.85-1.598 2.213-2.695 3.927-3.14l.103-.026l.12-.028l31.467-8.115a7.014 7.014 0 0 1 1.478-.188l.147-.003h.138Z"/></svg>